<svg width="28" height="19" viewBox="0 0 28 19" fill="none" xmlns="http://www.w3.org/2000/svg">
<path d="M0 0.923856C0.250833 0.221668 0.767083 -0.000727381 1.4875 1.78605e-06C9.82917 0.0123976 18.1708 0.0123976 26.5132 1.78605e-06C27.2336 -0.000727381 27.7484 0.222398 28 0.923856C28 1.08792 28 1.25198 28 1.41604C27.7645 2.10875 27.273 2.35448 26.5541 2.35302C18.1847 2.34136 9.81531 2.34136 1.44594 2.35302C0.726979 2.35448 0.23625 2.10875 0 1.41604C0 1.25198 0 1.08792 0 0.923856Z" fill="#828282"/>
<path d="M22.1302 17.7688C21.9836 18.4688 21.6846 18.6941 21.2661 18.6926C16.4222 18.6802 11.5777 18.6802 6.73381 18.6926C6.31527 18.6933 6.01631 18.4702 5.86975 17.7688C5.86975 17.6047 5.86975 17.4406 5.86975 17.2766C6.00683 16.5831 6.29194 16.3381 6.70975 16.3389C11.5704 16.3513 16.4303 16.3513 21.2909 16.3389C21.7087 16.3381 21.9938 16.5831 22.1302 17.2766C22.1302 17.4406 22.1302 17.6047 22.1302 17.7688Z" fill="#828282"/>
<path d="M24.4635 9.61977C24.3636 9.82102 24.2906 10.0638 24.1572 10.2104C24.0245 10.3577 23.8356 10.4233 23.6643 10.4962C23.5775 10.5334 23.4747 10.5079 23.3799 10.5079C17.1404 10.5079 10.9002 10.5028 4.66075 10.5181C4.12117 10.5196 3.73763 10.3088 3.53638 9.61904C3.53638 9.43675 3.53638 9.25446 3.53638 9.07217C3.56336 9.00144 3.59034 8.93071 3.61659 8.85998C3.76898 8.45311 4.00961 8.21759 4.35377 8.18842C4.442 8.18113 4.53096 8.18404 4.61919 8.18404C10.8594 8.18404 17.0989 8.18988 23.3391 8.17384C23.8787 8.17238 24.2622 8.38311 24.4627 9.0729C24.4635 9.25519 24.4635 9.43748 24.4635 9.61977Z" fill="#828282"/>
</svg>
